<svg xmlns="http://www.w3.org/2000/svg" viewBox="0 0 1367.51 175.36"><defs><style>.cls-1{fill:#e22e29;}</style></defs><title>tedx-sp</title><g id="レイヤー_2" data-name="レイヤー 2"><g id="Layer_1" data-name="Layer 1"><path class="cls-1" d="M10.6,154.53,3,143.63h7.21l4.05,6,4-6h7L17.73,154.4l8.5,12.24H19l-4.81-7.25L9.4,166.64H2.33Z"/><path d="M56.18,153H33.7v-4.76H56.18Zm0,9.53H33.7v-4.76H56.18Z"/><path d="M73.4,140.07H67.08v-5.21H73.4Zm-6.32,3.56H73.4v23H67.08Z"/><path d="M77.5,143.63h6v3.2h.13a8.21,8.21,0,0,1,7-3.83c6.72,0,8.41,3.78,8.41,9.48v14.15H92.76v-13c0-3.78-1.11-5.65-4.05-5.65-3.43,0-4.9,1.91-4.9,6.59v12.06H77.5Z"/><path d="M119.42,163.7h-.09c-1.47,2.49-4.05,3.56-7,3.56-6.94,0-10.33-6-10.33-12.33,0-6.19,3.43-11.93,10.19-11.93a8,8,0,0,1,6.85,3.43h0V134.86h6.32v31.78h-6Zm-5.52-15.93c-4.14,0-5.56,3.56-5.56,7.34,0,3.6,1.65,7.39,5.56,7.39,4.18,0,5.43-3.65,5.43-7.43S118,147.77,113.9,147.77Z"/><path d="M134.51,156.67c.18,4,2.14,5.83,5.65,5.83,2.54,0,4.58-1.56,5-3h5.56c-1.78,5.43-5.56,7.74-10.77,7.74-7.26,0-11.75-5-11.75-12.11,0-6.9,4.76-12.15,11.75-12.15,7.83,0,11.62,6.59,11.17,13.66Zm10.28-4c-.58-3.2-2-4.9-5-4.9a5,5,0,0,0-5.25,4.9Z"/><path d="M154,143.63h6v2.94h.09a7.66,7.66,0,0,1,6.85-3.56c7.21,0,10.46,5.83,10.46,12.37,0,6.14-3.38,11.88-10.1,11.88a8.17,8.17,0,0,1-6.9-3.47h-.09v10.95H154Zm17.09,11.57c0-3.65-1.47-7.43-5.52-7.43s-5.47,3.69-5.47,7.43,1.42,7.3,5.52,7.3S171.05,158.94,171.05,155.2Z"/><path d="M185.47,156.67c.18,4,2.14,5.83,5.65,5.83,2.54,0,4.58-1.56,5-3h5.56c-1.78,5.43-5.56,7.74-10.77,7.74-7.26,0-11.75-5-11.75-12.11,0-6.9,4.76-12.15,11.75-12.15,7.83,0,11.62,6.59,11.17,13.66Zm10.28-4c-.58-3.2-2-4.9-5-4.9a5,5,0,0,0-5.25,4.9Z"/><path d="M204.92,143.63h6v3.2h.13a8.21,8.21,0,0,1,7-3.83c6.72,0,8.41,3.78,8.41,9.48v14.15h-6.32v-13c0-3.78-1.11-5.65-4.05-5.65-3.43,0-4.9,1.91-4.9,6.59v12.06h-6.32Z"/><path d="M246.85,163.7h-.09c-1.47,2.49-4.05,3.56-7,3.56-6.94,0-10.33-6-10.33-12.33,0-6.19,3.43-11.93,10.19-11.93a8,8,0,0,1,6.85,3.43h0V134.86h6.32v31.78h-6Zm-5.52-15.93c-4.14,0-5.56,3.56-5.56,7.34,0,3.6,1.65,7.39,5.56,7.39,4.18,0,5.43-3.65,5.43-7.43S245.42,147.77,241.33,147.77Z"/><path d="M261.93,156.67c.18,4,2.14,5.83,5.65,5.83,2.54,0,4.58-1.56,5-3h5.56c-1.78,5.43-5.56,7.74-10.77,7.74-7.26,0-11.75-5-11.75-12.11,0-6.9,4.76-12.15,11.75-12.15,7.83,0,11.62,6.59,11.17,13.66Zm10.28-4c-.58-3.2-2-4.9-5-4.9a5,5,0,0,0-5.25,4.9Z"/><path d="M281.38,143.63h6v3.2h.13a8.21,8.21,0,0,1,7-3.83c6.72,0,8.41,3.78,8.41,9.48v14.15h-6.32v-13c0-3.78-1.11-5.65-4.05-5.65-3.43,0-4.9,1.91-4.9,6.59v12.06h-6.32Z"/><path d="M314.9,143.63h4.63v4.23H314.9v11.39c0,2.14.53,2.67,2.67,2.67a9.74,9.74,0,0,0,2-.18v4.94a24.22,24.22,0,0,1-3.69.22c-3.87,0-7.26-.89-7.26-5.47V147.86h-3.83v-4.23h3.83v-6.9h6.32Z"/><path d="M321.84,134.86h6.32v31.78h-6.32Z"/><path d="M343.6,169.53c-1.38,3.69-3.56,5.21-7.92,5.21a37.56,37.56,0,0,1-3.87-.22v-5.21a33.53,33.53,0,0,0,3.69.22c2.18-.22,2.89-2.49,2.18-4.32l-8.1-21.59h6.77l5.21,15.76h.09l5-15.76h6.54Z"/><path d="M377.12,143c7.25,0,11.93,4.81,11.93,12.15s-4.67,12.11-11.93,12.11-11.88-4.81-11.88-12.11S369.91,143,377.12,143Zm0,19.5c4.32,0,5.61-3.69,5.61-7.34s-1.29-7.39-5.61-7.39-5.56,3.69-5.56,7.39S372.84,162.5,377.12,162.5Z"/><path d="M391.36,143.63h6v4.27h.09a8.14,8.14,0,0,1,7.34-4.9,4.7,4.7,0,0,1,1.38.22v5.87a11.55,11.55,0,0,0-2.27-.22c-4.63,0-6.23,3.34-6.23,7.39v10.37h-6.32Z"/><path d="M429.9,165.17c0,3.78-1.34,10.19-11.93,10.19-4.54,0-9.84-2.14-10.15-7.39h6.28c.58,2.36,2.49,3.16,4.72,3.16,3.52,0,5.12-2.4,5.07-5.7v-3h-.09a7.78,7.78,0,0,1-6.9,3.56c-6.9,0-9.84-5.25-9.84-11.57,0-6,3.43-11.39,9.88-11.39,3,0,5.34,1,6.85,3.69h.09v-3.07h6Zm-6-10.33c0-3.74-1.29-7.08-5.39-7.08-3.56,0-5.12,3.12-5.12,6.54s1.25,6.9,5.12,6.9C422.11,161.21,423.89,158.14,423.89,154.85Z"/><path d="M432.93,150.71c.36-5.92,5.65-7.7,10.82-7.7,4.58,0,10.1,1,10.1,6.54v12c0,2.09.22,4.18.8,5.12h-6.41a9.39,9.39,0,0,1-.44-2.23,10.55,10.55,0,0,1-7.75,2.85c-4.36,0-7.83-2.18-7.83-6.9,0-5.21,3.92-6.45,7.83-7s7.48-.44,7.48-3-1.87-3.12-4.1-3.12c-2.4,0-4,1-4.18,3.47Zm14.6,4.67c-1.07.94-3.29,1-5.25,1.34s-3.74,1.07-3.74,3.38,1.83,2.94,3.87,2.94c4.94,0,5.12-3.92,5.12-5.3Z"/><path d="M457.85,143.63h6v3.2H464a8.21,8.21,0,0,1,7-3.83c6.72,0,8.41,3.78,8.41,9.48v14.15h-6.32v-13c0-3.78-1.11-5.65-4.05-5.65-3.43,0-4.9,1.91-4.9,6.59v12.06h-6.32Z"/><path d="M489,140.07h-6.32v-5.21H489Zm-6.32,3.56H489v23h-6.32Z"/><path d="M491.63,161.88l12-13.49H492.52v-4.76h19.41v4.76l-12,13.49h12.82v4.76H491.63Z"/><path d="M520.47,156.67c.18,4,2.14,5.83,5.65,5.83,2.54,0,4.58-1.56,5-3h5.56c-1.78,5.43-5.56,7.74-10.77,7.74-7.25,0-11.75-5-11.75-12.11,0-6.9,4.76-12.15,11.75-12.15,7.83,0,11.62,6.59,11.17,13.66Zm10.28-4c-.58-3.2-2-4.9-5-4.9a5,5,0,0,0-5.25,4.9Z"/><path d="M556.35,163.7h-.09c-1.47,2.49-4,3.56-7,3.56-6.94,0-10.33-6-10.33-12.33,0-6.19,3.43-11.93,10.19-11.93a8,8,0,0,1,6.85,3.43h0V134.86h6.32v31.78h-6Zm-5.52-15.93c-4.14,0-5.56,3.56-5.56,7.34,0,3.6,1.65,7.39,5.56,7.39,4.18,0,5.43-3.65,5.43-7.43S554.92,147.77,550.83,147.77Z"/><path d="M585.41,140.74h-9.52v-5.88h26v5.88h-9.53v25.9h-7Z"/><path d="M604.68,134.86h23.77v5.88H611.67v6.81h15.4V153h-15.4v7.79H628.8v5.88H604.68Z"/><path d="M631.74,134.86h13.71c8.23,0,14.42,5.16,14.42,15.71,0,9.21-4.72,16.07-14.42,16.07H631.74Zm7,25.9H645c4,0,7.92-2.49,7.92-9.52,0-6.41-2.23-10.5-9.17-10.5h-5Z"/><path d="M679.85,156.67c.18,4,2.14,5.83,5.65,5.83,2.54,0,4.58-1.56,5-3h5.56c-1.78,5.43-5.56,7.74-10.77,7.74-7.25,0-11.75-5-11.75-12.11,0-6.9,4.76-12.15,11.75-12.15,7.83,0,11.62,6.59,11.17,13.66Zm10.28-4c-.58-3.2-2-4.9-5-4.9a5,5,0,0,0-5.25,4.9Z"/><path d="M711.14,166.64h-7l-7.88-23h6.63l4.85,15.71h.09l4.85-15.71h6.28Z"/><path d="M725,156.67c.18,4,2.14,5.83,5.65,5.83,2.54,0,4.58-1.56,5-3h5.56c-1.78,5.43-5.56,7.74-10.77,7.74-7.25,0-11.75-5-11.75-12.11,0-6.9,4.76-12.15,11.75-12.15,7.83,0,11.62,6.59,11.17,13.66Zm10.28-4c-.58-3.2-2-4.9-5-4.9a5,5,0,0,0-5.25,4.9Z"/><path d="M744.43,143.63h6v3.2h.13a8.21,8.21,0,0,1,7-3.83c6.72,0,8.41,3.78,8.41,9.48v14.15H759.7v-13c0-3.78-1.11-5.65-4.05-5.65-3.43,0-4.9,1.91-4.9,6.59v12.06h-6.32Z"/><path d="M777.94,143.63h4.63v4.23h-4.63v11.39c0,2.14.53,2.67,2.67,2.67a9.72,9.72,0,0,0,2-.18v4.94a24.2,24.2,0,0,1-3.69.22c-3.87,0-7.25-.89-7.25-5.47V147.86h-3.83v-4.23h3.83v-6.9h6.32Z"/><path class="cls-1" d="M29.65,29.72H0V2.6H91.88V29.72H62.24v78.7H29.65Z"/><path class="cls-1" d="M96.94,2.6h89.19V29.72H129.55V42.91h56.59v25.2H129.55V81.29h56.6v27.12H96.94Z"/><path class="cls-1" d="M191.62,2.6h53.5c35.27,0,47.73,26.08,47.73,52.75,0,32.47-17.19,53.06-54.1,53.06H191.62Zm32.6,78.7H237c20.31,0,23.28-16.46,23.28-26.4,0-6.66-2.09-25.18-25.65-25.18H224.22Z"/><path class="cls-1" d="M339.7,67.64l-9.95-16.49-9.7,16.49H296.17l22.68-33.35L297,2.39H320.9l8.85,15.77,9.1-15.77h23.89l-21.83,31.9,22.68,33.35Z"/><path d="M380.62,2.87h16.65l30.29,50.64L457.85,2.87h16.79L434.73,65.78v42.46H420.45V65.78Z"/><path d="M527.19,39.09q10.18,9.89,10.19,29.1,0,18.56-9,30.67T500.55,111q-15.74,0-25-10.71t-9.26-28.78q0-19.35,9.76-30.82t26.21-11.47A34.43,34.43,0,0,1,527.19,39.09Zm-8,51.06a48.77,48.77,0,0,0,4.72-21.6q0-10.75-3.41-17.48-5.39-10.6-18.58-10.6-11.7,0-17,9t-5.32,21.78q0,12.25,5.32,20.42t16.88,8.17Q514.45,99.85,519.17,90.14Z"/><path d="M566.14,31.42v51A22,22,0,0,0,568,92q3.35,6.89,12.5,6.89,13.13,0,17.88-12.05,2.58-6.46,2.58-17.72V31.42h12.91v76.82H601.64l.14-11.33a26,26,0,0,1-6.13,7.39,26.62,26.62,0,0,1-17.6,6q-16.12,0-22-11-3.17-5.88-3.17-15.71V31.42Z"/><path d="M637.51,10h13.05V31.42h12.27V42H650.56V92.1q0,4,2.73,5.38a11.57,11.57,0,0,0,5,.79q.93,0,2,0t2.51-.24v10.26a29,29,0,0,1-4.63.93,44.18,44.18,0,0,1-5.2.29q-9,0-12.27-4.63t-3.23-12V42h-10.4V31.42h10.4Z"/><path d="M675.74,2.51h12.91V41.82a37.26,37.26,0,0,1,8.25-8.18q6.24-4.09,15.57-4.09,16.71,0,22.67,11.69,3.23,6.39,3.23,17.72v49.28H725.09V59.82q0-8.46-2.15-12.41-3.51-6.31-13.2-6.31a22,22,0,0,0-14.56,5.52q-6.53,5.52-6.53,20.87v40.74H675.74Z"/><path d="M777.1,92.6a51.34,51.34,0,0,1-13-34.65q0-23.38,15.78-39.74Q797.4,0,826.88,0,852.42,0,867,12.91q13.7,12.19,13.7,31.63,0,16.35-9.79,27.94T849,84.07q-7.1,0-10.47-3.41a11.25,11.25,0,0,1-3.37-8.21,9.93,9.93,0,0,1,.14-1.65q.14-.86.36-1.79-3.8,8.25-9.61,11.66a23.38,23.38,0,0,1-12,3.41,18,18,0,0,1-14.31-6.38q-5.49-6.38-5.49-16.43a37.51,37.51,0,0,1,9.36-25.18q9.36-10.9,20.12-10.9a17.54,17.54,0,0,1,12.09,4.23,14.12,14.12,0,0,1,5.06,10.19l3.59-12.05h10.54L845.53,59q-1.08,3.66-1.58,5.88a18.14,18.14,0,0,0-.5,3.94,5.47,5.47,0,0,0,2,4.7A7.3,7.3,0,0,0,849.91,75q8.18,0,14.67-8.54t6.49-22.31q0-16.64-11.62-26.15t-31.27-9.5q-27.26,0-41.68,15.92-12.34,13.56-12.34,34.07,0,17.93,11.76,30.13Q799.69,103,825.16,103a63.83,63.83,0,0,0,22.17-3.77,73.44,73.44,0,0,0,18.79-10.15l4.73,6.46q-6.46,5.74-19.3,10.76a77,77,0,0,1-28.26,5Q793.31,111.33,777.1,92.6Zm57.46-56.42a10.12,10.12,0,0,0-8.2-3.55q-8.17,0-14.15,9.65t-6,19.19q0,7,3.08,10.72A9.66,9.66,0,0,0,817,75.89q9.67,0,15.08-11.3t5.41-20.41A12.13,12.13,0,0,0,834.56,36.19Z"/><path d="M908.29,2.87h16.81L977.66,88V2.87h13.63V108.24h-16l-53.33-85v85H908.29Z"/><path d="M1053.84,61.75q4.45-.57,6-3.72a11.44,11.44,0,0,0,.86-5q0-6.62-4.69-9.61t-13.42-3q-10.09,0-14.32,5.48-2.36,3-3.08,9h-12.05q.36-14.24,9.21-19.82a37.68,37.68,0,0,1,20.53-5.57q13.54,0,22,5.16t8.38,16.07V95a5.66,5.66,0,0,0,.82,3.23q.82,1.22,3.48,1.22.86,0,1.94-.11t2.29-.32v9.54a36,36,0,0,1-4.59,1.08,33.52,33.52,0,0,1-4.3.22q-6.67,0-9.68-4.73a18.26,18.26,0,0,1-2.22-7.1,32.84,32.84,0,0,1-11.33,9,35.08,35.08,0,0,1-16.28,3.8q-10.69,0-17.47-6.48a21.52,21.52,0,0,1-6.78-16.23q0-10.67,6.67-16.55t17.5-7.24Zm-27.19,34.88a15.18,15.18,0,0,0,9.68,3.22,29.49,29.49,0,0,0,13.2-3.15q10.76-5.23,10.76-17.12V69.2a22,22,0,0,1-6.08,2.52,51.19,51.19,0,0,1-7.3,1.44l-7.8,1q-7,.93-10.55,2.94-6,3.36-6,10.74A10.6,10.6,0,0,0,1026.65,96.63Z"/><path d="M1094.36,31.42h12.77v10.9a42.89,42.89,0,0,1,8.32-8.25,25,25,0,0,1,14.49-4.38q9.18,0,14.78,4.52a23.63,23.63,0,0,1,5.74,7.6,27.92,27.92,0,0,1,10.11-9.15,28.22,28.22,0,0,1,13.06-3q15.49,0,21.09,11.19,3,6,3,16.21v51.14h-13.41V54.87q0-7.68-3.84-10.54a15.19,15.19,0,0,0-9.36-2.87A18.58,18.58,0,0,0,1158,46.55q-5.49,5.09-5.49,17v44.69h-13.13V58.1q0-7.82-1.87-11.41-2.94-5.38-11-5.38A18.94,18.94,0,0,0,1113.26,47q-6,5.67-6,20.52v40.74h-12.91Z"/><path d="M1215.66,2.51h12.55V40.74a28.28,28.28,0,0,1,23-11.33q14.4,0,23.37,9.86t9,29.09q0,18.22-8.86,30.27t-24.55,12.05q-8.79,0-14.83-4.23a35.71,35.71,0,0,1-7.7-8v9.83h-11.91ZM1265,91q5.22-8.32,5.22-21.95,0-12.12-5.22-20.08t-15.37-8a21.47,21.47,0,0,0-15.51,6.53Q1227.5,54,1227.5,69q0,10.83,2.73,17.57,5.11,12.7,19.07,12.7Q1259.81,99.28,1265,91Z"/><path d="M1339.61,61.75q4.45-.57,6-3.72a11.44,11.44,0,0,0,.86-5q0-6.62-4.69-9.61t-13.42-3q-10.09,0-14.32,5.48-2.36,3-3.08,9h-12.05q.36-14.24,9.21-19.82a37.68,37.68,0,0,1,20.53-5.57q13.54,0,22,5.16T1359,50.79V95a5.66,5.66,0,0,0,.82,3.23q.82,1.22,3.48,1.22.86,0,1.94-.11t2.29-.32v9.54a36,36,0,0,1-4.59,1.08,33.52,33.52,0,0,1-4.3.22q-6.67,0-9.68-4.73a18.26,18.26,0,0,1-2.22-7.1,32.84,32.84,0,0,1-11.33,9,35.08,35.08,0,0,1-16.28,3.8q-10.69,0-17.47-6.48a21.52,21.52,0,0,1-6.78-16.23q0-10.67,6.67-16.55t17.5-7.24Zm-27.19,34.88a15.18,15.18,0,0,0,9.68,3.22,29.49,29.49,0,0,0,13.2-3.15q10.76-5.23,10.76-17.12V69.2a22,22,0,0,1-6.08,2.52,51.19,51.19,0,0,1-7.3,1.44l-7.8,1q-7,.93-10.55,2.94-6,3.36-6,10.74A10.6,10.6,0,0,0,1312.42,96.63Z"/></g></g></svg>